# Blender 3.5.0
# www.blender.org
mtllib A35_DRIVE_simplified.mtl
g Cylinder.002_Cylinder.002
v 0.008811 0.020978 -0.034139
v 0.008811 0.020978 -0.014661
v 0.020909 0.008668 -0.034139
v 0.020909 0.008668 -0.014661
v 0.020758 -0.008592 -0.034139
v 0.020758 -0.008592 -0.014661
v 0.008448 -0.020689 -0.034139
v 0.008448 -0.020689 -0.014661
v -0.008811 -0.020539 -0.034139
v -0.008811 -0.020539 -0.014661
v -0.020909 -0.008228 -0.034139
v -0.020909 -0.008228 -0.014661
v -0.020758 0.009031 -0.034139
v -0.020758 0.009031 -0.014661
v -0.008448 0.021129 -0.034139
v -0.008448 0.021129 -0.014661
v 0.000000 -0.030937 -0.025000
v -0.000000 0.021563 -0.025000
v 0.017678 -0.030937 -0.017678
v 0.017678 0.021563 -0.017678
v 0.025000 -0.030937 0.000000
v 0.025000 0.021563 0.000000
v 0.017678 -0.030937 0.017678
v 0.017678 0.021563 0.017678
v 0.000000 -0.030937 0.025000
v -0.000000 0.021563 0.025000
v -0.017678 -0.030937 0.017678
v -0.017678 0.021563 0.017678
v -0.025000 -0.030937 0.000000
v -0.025000 0.021563 0.000000
v -0.017678 -0.030937 -0.017678
v -0.017678 0.021563 -0.017678
v 0.000000 -0.041427 -0.016401
v 0.000000 -0.027810 -0.016401
v 0.011597 -0.041427 -0.011597
v 0.011597 -0.027810 -0.011597
v 0.016401 -0.041427 0.000000
v 0.016401 -0.027810 0.000000
v 0.011597 -0.041427 0.011597
v 0.011597 -0.027810 0.011597
v 0.000000 -0.041427 0.016401
v 0.000000 -0.027810 0.016401
v -0.011597 -0.041427 0.011597
v -0.011597 -0.027810 0.011597
v -0.016401 -0.041427 0.000000
v -0.016401 -0.027810 0.000000
v -0.011597 -0.041427 -0.011597
v -0.011597 -0.027810 -0.011597
vn 0.7133 0.7009 -0.0000
vn 1.0000 -0.0087 -0.0000
vn 0.7009 -0.7133 -0.0000
vn -0.0087 -1.0000 -0.0000
vn -0.7133 -0.7009 -0.0000
vn -1.0000 0.0087 -0.0000
vn -0.0000 -0.0000 1.0000
vn -0.7009 0.7133 -0.0000
vn 0.0087 1.0000 -0.0000
vn -0.0000 -0.0000 -1.0000
vn 0.3827 -0.0000 -0.9239
vn 0.9239 -0.0000 -0.3827
vn 0.9239 -0.0000 0.3827
vn 0.3827 -0.0000 0.9239
vn -0.3827 -0.0000 0.9239
vn -0.9239 -0.0000 0.3827
vn -0.0000 1.0000 -0.0000
vn -0.9239 -0.0000 -0.3827
vn -0.3827 -0.0000 -0.9239
vn -0.0000 -1.0000 -0.0000
vt 0.797915 0.780782
vt 0.850291 0.015048
vt 0.494555 0.750302
vt 0.797915 0.953841
vt 0.684536 0.637630
vt 0.850291 0.188107
vt 0.750761 0.780782
vt 0.541384 0.703473
vt 0.750761 0.953841
vt 0.684536 0.703857
vt 0.684536 0.780782
vt 0.941338 0.780782
vt 0.607611 0.703473
vt 0.684536 0.953841
vt 0.941338 0.953841
vt 0.731365 0.750687
vt 0.894237 0.780782
vt 0.654440 0.750302
vt 0.894237 0.953841
vt 0.797592 0.750687
vt 0.828011 0.780782
vt 0.464459 0.703473
vt 0.654440 0.816529
vt 0.828011 0.953841
vt 0.464459 0.876532
vt 0.844421 0.703857
vt 0.417305 0.703473
vt 0.607611 0.863359
vt 0.417305 0.876532
vt 0.844421 0.637630
vt 0.351080 0.703473
vt 0.963618 0.015048
vt 0.541384 0.863359
vt 0.351080 0.876532
vt 0.797592 0.590801
vt 0.963618 0.188107
vt 0.916517 0.015048
vt 0.494555 0.816529
vt 0.731365 0.590801
vt 0.916517 0.188107
vt 0.752366 0.015048
vt 0.070362 0.452335
vt 0.367536 0.015048
vt 0.752366 0.216493
vt 0.684536 0.015048
vt 0.452946 0.359260
vt 0.015048 0.376351
vt 0.684536 0.216493
vt 0.654391 0.359260
vt 0.289311 0.067143
vt 0.452996 0.516319
vt 0.015048 0.216799
vt 0.654440 0.516319
vt 0.233997 0.216799
vt 0.452946 0.673377
vt 0.684536 0.560705
vt 0.070362 0.067143
vt 0.654391 0.673377
vt 0.684536 0.359260
vt 0.233997 0.376351
vt 0.752366 0.560705
vt 0.148587 0.015048
vt 0.752366 0.359260
vt 0.289311 0.452335
vt 0.820196 0.560705
vt 0.452996 0.015048
vt 0.203901 0.091031
vt 0.820196 0.359260
vt 0.654440 0.015048
vt 0.367536 0.400240
vt 0.452946 0.172106
vt 0.203901 0.250583
vt 0.422850 0.250583
vt 0.654391 0.172106
vt 0.452996 0.329165
vt 0.820196 0.015048
vt 0.148587 0.400240
vt 0.422850 0.091031
vt 0.654440 0.329165
vt 0.820196 0.216493
vt 0.370600 0.526928
vt 0.256640 0.482430
vt 0.051335 0.769299
vt 0.422850 0.526928
vt 0.370600 0.571426
vt 0.984952 0.660433
vt 0.292927 0.532277
vt 0.422850 0.571426
vt 0.932702 0.660433
vt 0.102653 0.735124
vt 0.984920 0.557399
vt 0.292927 0.636946
vt 0.932670 0.557399
vt 0.138940 0.636946
vt 0.984952 0.454365
vt 0.221285 0.888391
vt 0.256640 0.735124
vt 0.932702 0.454365
vt 0.169035 0.888391
vt 0.138940 0.532277
vt 0.221285 0.843893
vt 0.205322 0.769299
vt 0.169035 0.843893
vt 0.102653 0.482430
vt 0.221285 0.799395
vt 0.902541 0.424270
vt 0.169035 0.719453
vt 0.169035 0.799395
vt 0.850291 0.424270
vt 0.051335 0.516605
vt 0.902574 0.321236
vt 0.169035 0.614783
vt 0.015048 0.614783
vt 0.850324 0.321236
vt 0.902541 0.218202
vt 0.370600 0.482430
vt 0.205322 0.516605
vt 0.015048 0.719453
vt 0.850291 0.218202
vt 0.422850 0.482430
s 0
g Cylinder.002_Material
usemtl Material
f 1/1/1 2/4/1 4/9/1 3/7/1
f 3/7/2 4/9/2 6/14/2 5/11/2
f 5/12/3 6/15/3 8/19/3 7/17/3
f 7/17/4 8/19/4 10/24/4 9/21/4
f 9/22/5 10/25/5 12/29/5 11/27/5
f 11/27/6 12/29/6 14/34/6 13/31/6
f 4/10/7 2/5/7 16/39/7 14/35/7 12/30/7 10/26/7 8/20/7 6/16/7
f 13/32/8 14/36/8 16/40/8 15/37/8
f 15/37/9 16/40/9 2/6/9 1/2/9
f 1/3/10 3/8/10 5/13/10 7/18/10 9/23/10 11/28/10 13/33/10 15/38/10
f 17/41/11 18/44/11 20/48/11 19/45/11
f 19/46/12 20/49/12 22/53/12 21/51/12
f 21/51/13 22/53/13 24/58/13 23/55/13
f 23/56/14 24/59/14 26/63/14 25/61/14
f 25/61/15 26/63/15 28/68/15 27/65/15
f 27/66/16 28/69/16 30/74/16 29/71/16
f 20/50/17 18/43/17 32/78/17 30/73/17 28/70/17 26/64/17 24/60/17 22/54/17
f 29/71/18 30/74/18 32/79/18 31/75/18
f 31/76/19 32/80/19 18/44/19 17/41/19
f 17/42/20 19/47/20 21/52/20 23/57/20 25/62/20 27/67/20 29/72/20 31/77/20
f 33/81/11 34/84/11 36/88/11 35/85/11
f 35/86/12 36/89/12 38/93/12 37/91/12
f 37/91/13 38/93/13 40/98/13 39/95/13
f 39/96/14 40/99/14 42/103/14 41/101/14
f 41/101/15 42/103/15 44/108/15 43/105/15
f 43/106/16 44/109/16 46/114/16 45/111/16
f 36/90/17 34/83/17 48/118/17 46/113/17 44/110/17 42/104/17 40/100/17 38/94/17
f 45/111/18 46/114/18 48/119/18 47/115/18
f 47/116/19 48/120/19 34/84/19 33/81/19
f 33/82/20 35/87/20 37/92/20 39/97/20 41/102/20 43/107/20 45/112/20 47/117/20
